<svg width="24" height="24" viewBox="0 0 24 24" fill="none" xmlns="http://www.w3.org/2000/svg">
<g clip-path="url(#clip0_23_284)">
<path d="M12 0C5.4 0 0 5.4 0 12C0 18.6 5.4 24 12 24C18.6 24 24 18.6 24 12C24 5.4 18.6 0 12 0ZM10.7 4.7C14 4.7 16.7 7.4 16.7 10.6C16.7 10.8 16.6 11.1 16.4 11.2C16.2 11.4 16 11.5 15.8 11.5C15.6 11.5 15.3 11.4 15.2 11.2C15 11 14.9 10.8 14.9 10.6C14.9 9.5 14.5 8.4 13.7 7.6C12.9 6.8 11.8 6.4 10.7 6.4C10.6 6.4 10.5 6.4 10.4 6.3C10.3 6.3 10.2 6.2 10.1 6.1C10 6.1 9.9 6 9.8 5.9C9.8 5.8 9.7 5.7 9.7 5.6C9.7 5.5 9.7 5.4 9.8 5.3C9.9 5.1 10 5 10 5C10.1 4.9 10.2 4.9 10.3 4.8C10.4 4.7 10.6 4.7 10.7 4.7ZM5.6 14.2C5.4 14.2 5.1 14.1 5 13.9C4.8 13.7 4.7 13.5 4.7 13.3C4.7 12.5 4.9 11.7 5.2 11C5.5 10.3 5.9 9.6 6.5 9.1C7.1 8.5 7.7 8.1 8.4 7.8C9.1 7.5 9.9 7.3 10.7 7.3C10.8 7.3 10.9 7.3 11.1 7.4C11.2 7.4 11.3 7.5 11.4 7.6C11.5 7.7 11.6 7.8 11.6 7.9C11.6 8 11.7 8.1 11.7 8.2C11.7 8.3 11.7 8.4 11.6 8.5C11.6 8.6 11.5 8.7 11.4 8.8C11.2 9 11.1 9.1 11 9.1C10.9 9.1 10.8 9.2 10.6 9.2C9.5 9.2 8.4 9.6 7.6 10.4C6.8 11.2 6.4 12.3 6.4 13.4C6.4 13.6 6.3 13.9 6.1 14C6.1 14.1 5.8 14.2 5.6 14.2ZM13.3 19.3C10 19.3 7.3 16.6 7.3 13.4C7.3 13.2 7.4 13 7.6 12.8C7.8 12.6 8 12.6 8.2 12.6C8.4 12.6 8.6 12.7 8.8 12.8C9 13 9.1 13.2 9.1 13.4C9.1 14 9.2 14.5 9.4 15C9.6 15.5 9.9 16 10.3 16.4C10.7 16.8 11.2 17.1 11.7 17.3C12.2 17.5 12.8 17.6 13.3 17.6C13.4 17.6 13.5 17.6 13.7 17.7C13.8 17.7 13.9 17.8 14 17.9C14.1 18 14.2 18.1 14.2 18.2C14.2 18.3 14.3 18.4 14.3 18.5C14.3 18.6 14.3 18.7 14.2 18.8C14.2 18.9 14.1 19 14 19.1C13.9 19.2 13.8 19.2 13.7 19.3C13.6 19.3 13.4 19.3 13.3 19.3ZM13.3 16.6C13.1 16.6 12.8 16.5 12.7 16.3C12.5 16.1 12.4 15.9 12.4 15.7C12.4 15.5 12.5 15.2 12.7 15.1C12.9 14.9 13.1 14.8 13.3 14.8C14.4 14.8 15.5 14.4 16.3 13.6C17.1 12.8 17.5 11.7 17.5 10.6C17.5 10.4 17.6 10.1 17.8 10C18 9.8 18.2 9.7 18.4 9.7C18.6 9.7 18.9 9.8 19 10C19.2 10.2 19.3 10.4 19.3 10.6C19.3 13.9 16.6 16.6 13.3 16.6Z" fill="#212529"/>
</g>
<defs>
<clipPath id="clip0_23_284">
<rect width="24" height="24" fill="white"/>
</clipPath>
</defs>
</svg>
