<svg width="24" height="24" viewBox="0 0 24 24" fill="none" xmlns="http://www.w3.org/2000/svg">
<g clip-path="url(#clip0_23_286)">
<path d="M12 0C8.8 0 5.8 1.3 3.5 3.5C1.3 5.8 0 8.8 0 12C0 15.2 1.3 18.2 3.5 20.5C5.8 22.7 8.8 24 12 24C15.2 24 18.2 22.7 20.5 20.5C22.8 18.2 24 15.2 24 12C24 8.8 22.7 5.8 20.5 3.5C18.2 1.3 15.2 0 12 0ZM6.7 6H17.3C17.9 6 18.5 6.2 18.9 6.7C19.3 7.1 19.6 7.7 19.6 8.3V15.9C19.6 16.5 19.4 17.1 18.9 17.5C18.4 17.9 17.9 18.2 17.3 18.2H6.7C6.1 18.2 5.5 18 5.1 17.5C4.7 17.1 4.4 16.5 4.4 15.9V8.2C4.4 7.6 4.6 7 5.1 6.6C5.5 6.2 6.1 6 6.7 6ZM7.2 7.5L12 11.1L16.8 7.5H7.2ZM6 8.4V15.8C6 16 6 16.2 6.2 16.3C6.3 16.4 6.5 16.5 6.7 16.5H17.3C17.5 16.5 17.7 16.4 17.8 16.3C18 16.2 18 16 18 15.8V8.4L12.4 12.6C12.3 12.7 12.1 12.8 11.9 12.8C11.7 12.8 11.6 12.7 11.4 12.6L6 8.4Z" fill="#212529"/>
</g>
<defs>
<clipPath id="clip0_23_286">
<rect width="24" height="24" fill="white"/>
</clipPath>
</defs>
</svg>
