<svg width="80" height="80" viewBox="0 0 80 80" fill="none" xmlns="http://www.w3.org/2000/svg">
<g clip-path="url(#clip0_23_288)">
<path fill-rule="evenodd" clip-rule="evenodd" d="M40 0C17.9 0 0 18.4 0 41C0 59.1 11.5 74.5 27.4 79.9C29.4 80.3 30.1 79 30.1 77.9C30.1 76.9 30.1 74.3 30 70.9C18.9 73.4 16.5 65.4 16.5 65.4C14.7 60.7 12.1 59.4 12.1 59.4C8.5 56.9 12.4 56.9 12.4 56.9C16.4 57.2 18.5 61.1 18.5 61.1C22.1 67.4 27.9 65.6 30.1 64.5C30.5 61.8 31.5 60 32.6 59C23.7 58 14.4 54.4 14.4 38.7C14.4 34.2 16 30.6 18.5 27.7C18.1 26.7 16.7 22.5 18.9 16.8C18.9 16.8 22.3 15.7 29.9 21C33.1 20.1 36.5 19.6 39.9 19.6C43.3 19.6 46.7 20.1 49.9 21C57.5 15.7 60.9 16.8 60.9 16.8C63.1 22.4 61.7 26.6 61.3 27.7C63.9 30.6 65.4 34.2 65.4 38.7C65.4 54.5 56 57.9 47.1 58.9C48.5 60.2 49.8 62.7 49.8 66.5C49.8 72 49.8 76.4 49.8 77.8C49.8 78.9 50.5 80.2 52.6 79.8C68.5 74.5 80 59.1 80 41C80 18.4 62.1 0 40 0Z" fill="#212529"/>
</g>
<defs>
<clipPath id="clip0_23_288">
<rect width="80" height="80" fill="white"/>
</clipPath>
</defs>
</svg>
