<svg width="24" height="24" viewBox="0 0 24 24" fill="none" xmlns="http://www.w3.org/2000/svg">
<g clip-path="url(#clip0_23_292)">
<path d="M12 0C8.8 0 5.8 1.3 3.5 3.5C1.2 5.7 0 8.8 0 12C0 15.2 1.3 18.2 3.5 20.5C5.8 22.7 8.8 24 12 24C15.2 24 18.2 22.7 20.5 20.5C22.8 18.2 24 15.2 24 12C24 8.8 22.7 5.8 20.5 3.5C18.2 1.3 15.2 0 12 0ZM8.8 4.2H15.9C17.8 4.3 19 5.7 19.1 7.1C19.2 8.7 18 10.4 15.9 10.5H14L16.7 12C18.6 13.1 19.4 15.5 18.8 17.2C18.3 18.6 16.5 19.8 15.5 19.8H8.1C3.9 19.6 3.9 13.7 8.1 13.5H10L7.1 11.8C3.3 9.5 5 4.2 8.8 4.2ZM8.8 5.2C7.8 5.2 6.3 6.3 6.1 7.6C5.9 8.6 6.4 10.3 7.5 10.9L11.5 13.2V10C11.5 9.7 11.7 9.5 12 9.5H16C17.1 9.5 18 8.5 18.1 7.4C18.2 6.3 17.2 5.1 15.9 5.1H8.8V5.2ZM12.5 10.8V13.9C12.5 14.3 12.4 14.4 12 14.4H8C7 14.4 6 15.5 6 16.5C6 17.6 6.8 18.7 8 18.7H15C16.5 18.7 17.6 17.5 17.9 16.5C18.1 15.6 18 13.7 16.4 12.9L12.5 10.8Z" fill="#212529"/>
</g>
<defs>
<clipPath id="clip0_23_292">
<rect width="24" height="24" fill="white"/>
</clipPath>
</defs>
</svg>
