<svg width="24" height="24" viewBox="0 0 24 24" fill="none" xmlns="http://www.w3.org/2000/svg">
<g clip-path="url(#clip0_23_290)">
<path fill-rule="evenodd" clip-rule="evenodd" d="M24 12C24 18.6 18.6 24 12 24C5.4 24 0 18.6 0 12C0 5.4 5.4 0 12 0C18.6 0 24 5.4 24 12ZM12.4 8.9C11.2 9.4 8.9 10.4 5.4 11.9C4.8 12.1 4.5 12.3 4.5 12.6C4.5 13 4.9 13.1 5.5 13.3C5.6 13.3 5.7 13.4 5.8 13.4C6.4 13.6 7.2 13.8 7.7 13.8C8.1 13.8 8.5 13.6 9 13.3C12.3 11.1 14 10 14.1 10C14.2 10 14.3 10 14.3 10C14.4 10.1 14.4 10.2 14.4 10.2C14.4 10.4 12.6 12.1 11.6 12.9C11.3 13.2 11.1 13.4 11.1 13.4C11 13.5 10.9 13.6 10.8 13.7C10.2 14.2 9.8 14.7 10.8 15.3C11.3 15.6 11.7 15.9 12.1 16.2C12.5 16.5 13 16.8 13.5 17.1C13.6 17.2 13.8 17.3 13.9 17.4C14.4 17.8 14.8 18.1 15.4 18C15.7 18 16.1 17.7 16.2 16.8C16.6 14.7 17.4 10.1 17.6 8.2C17.6 8 17.6 7.9 17.6 7.7C17.6 7.6 17.5 7.5 17.4 7.4C17.3 7.3 17 7.3 16.9 7.3C16.5 7.2 15.8 7.5 12.4 8.9Z" fill="#212529"/>
</g>
<defs>
<clipPath id="clip0_23_290">
<rect width="24" height="24" fill="white"/>
</clipPath>
</defs>
</svg>
