<svg width="24" height="24" viewBox="0 0 24 24" fill="none" xmlns="http://www.w3.org/2000/svg">
<g clip-path="url(#clip0_23_294)">
<path fill-rule="evenodd" clip-rule="evenodd" d="M3.5 3.5C5.8 1.3 8.8 0 12 0C15.2 0 18.2 1.3 20.5 3.5C22.7 5.8 24 8.8 24 12C24 15.2 22.8 18.2 20.5 20.5C18.2 22.7 15.2 24 12 24C8.8 24 5.8 22.7 3.5 20.5C1.3 18.2 0 15.2 0 12C0 8.8 1.3 5.8 3.5 3.5ZM19.1 10C19.1 6.5 15.9 3.7 12 3.7C8.1 3.7 4.9 6.5 4.9 10.1C4.9 11.4 5.3 12.6 6.1 13.6L5.3 16.6L8.9 15.7C9.9 16.1 10.9 16.3 12 16.3C15.9 16.3 19.1 13.5 19.1 10ZM11.3766 6.83829C11.5878 6.76261 11.7626 6.7 12 6.7C12.3 6.7 12.5 6.7 12.7 6.8C13 6.9 13.2 7 13.4 7.2C13.45 7.3 13.525 7.425 13.6 7.55C13.675 7.675 13.75 7.8 13.8 7.9C13.8209 7.96259 13.8417 8.02083 13.8617 8.07654L13.8617 8.07659C13.9374 8.28784 14 8.46261 14 8.7V9.5H14.1C14.1425 9.5 14.1669 9.5 14.1887 9.50767C14.2181 9.51806 14.2425 9.5425 14.3 9.6C14.4 9.6 14.4 9.7 14.4 9.8V12.6C14.4 12.8 14.3 12.9 14.1 12.9H9.9C9.7 12.9 9.6 12.8 9.6 12.6V9.8V9.7L9.7 9.6C9.7 9.5 9.8 9.5 9.8 9.5H9.9H10V8.7C10 8.4 10 8.1 10.1 8C10.2 7.7 10.3 7.5 10.5 7.3C10.6528 7.14721 10.8639 7.05279 11.0443 6.97214C11.1 6.94721 11.1528 6.92361 11.2 6.9C11.2626 6.87913 11.3209 6.85826 11.3766 6.8383L11.3766 6.83829ZM13.2 8.7C13.2 8 12.7 7.5 12 7.5C11.3 7.5 10.8 8 10.8 8.7V9.5H13.2V8.7ZM8.7999 19.1C8.7999 19.8 8.2999 20.3 7.5999 20.3C6.9999 20.3 6.3999 19.7 6.3999 19.1C6.3999 18.4 6.8999 17.9 7.5999 17.9C8.2999 17.9 8.7999 18.4 8.7999 19.1ZM12 20.3C12.7 20.3 13.2 19.8 13.2 19.1C13.2 18.4 12.7 17.9 12 17.9C11.3 17.9 10.8 18.4 10.8 19.1C10.8 19.7 11.3 20.3 12 20.3ZM17.6 19.1C17.6 19.8 17.1 20.3 16.4 20.3C15.7 20.3 15.2 19.7 15.2 19.1C15.2 18.4 15.7 17.9 16.4 17.9C17.1 17.9 17.6 18.4 17.6 19.1Z" fill="#212529"/>
</g>
<defs>
<clipPath id="clip0_23_294">
<rect width="24" height="24" fill="white"/>
</clipPath>
</defs>
</svg>
